<svg width="416" height="100" viewBox="0 0 416 100" fill="none" xmlns="http://www.w3.org/2000/svg">
<path d="M338.179 32.0207H358.947V56.0547C358.947 72.2169 346.72 80.3399 334.578 80.3399C322.351 80.3399 310.125 72.2169 310.125 56.0547V32.0207H330.893V55.2172C330.893 58.1482 332.735 59.5718 334.578 59.5718C336.336 59.5718 338.179 58.1482 338.179 55.2172V32.0207Z" fill="#FAD02F"/>
<path d="M386.47 79H365.869V54.8823C365.869 38.3851 378.012 30.3458 390.071 30.3458C402.213 30.3458 414.272 38.3851 414.272 54.8823V79H393.672V54.8823C393.672 52.4538 391.913 50.9464 390.071 50.9464C388.312 50.9464 386.47 52.4538 386.47 54.8823V79Z" fill="#FAD02F"/>
<path d="M301.555 32.0207V51.7001H293.6C292.762 51.7001 292.344 52.2025 292.344 52.9562V79H271.743V53.7936C271.743 40.6461 280.955 32.0207 294.102 32.0207H301.555Z" fill="#FAD02F"/>
<path d="M131.95 30.5971C145.265 30.5971 156.151 41.3998 156.151 54.7985V79H136.053V54.7985C136.053 52.5375 134.211 50.6114 131.95 50.6114C129.605 50.6114 127.763 52.5375 127.763 54.7985C127.763 57.0596 129.605 58.9856 131.95 58.9856H134.881V79H131.95C118.551 79 107.748 68.1135 107.748 54.7985C107.748 41.3998 118.551 30.5971 131.95 30.5971Z" fill="#894DF8"/>
<path fill-rule="evenodd" clip-rule="evenodd" d="M40.5731 78.292H70.5946V42.6179C70.5946 34.8299 80.3924 34.9555 80.3924 42.4923V78.292H109.677C103.18 72.461 99.1 64.0001 99.1 54.6222C99.1 44.9952 103.346 36.3885 110.072 30.5663C105.662 12.6998 90.0283 5.58112 75.1167 5.68764C68.2079 5.81325 60.5455 8.32551 55.6466 13.6013C49.994 7.94868 42.8341 5.68764 35.7998 5.68764C18.3395 5.68764 0 14.8574 0 41.2362V78.292H30.9008V42.4923C30.9008 34.9555 40.5731 34.8299 40.5731 42.6179V78.292Z" fill="#894DF8"/>
<path fill-rule="evenodd" clip-rule="evenodd" d="M224.346 30.3324C218.545 21.2823 208.13 17.2951 196.898 17.2951C195.348 17.2951 193.798 17.4058 192.248 17.6273V1.79349H165.009V79.4122H192.248V48.6304C192.248 40.6582 202.102 41.544 202.102 48.6304V79.4122H224.995C217.736 73.5743 213.1 64.6193 213.1 54.6222C213.1 44.8655 217.461 36.1567 224.346 30.3324Z" fill="#894DF8"/>
<path fill-rule="evenodd" clip-rule="evenodd" d="M265.888 41.1085C261.516 34.7538 254.191 30.5971 245.932 30.5971C232.533 30.5971 221.73 41.3998 221.73 54.7985C221.73 68.1135 232.533 79 245.932 79H248.863V58.9856H245.932C243.587 58.9856 241.745 57.0596 241.745 54.7985C241.745 52.5375 243.587 50.6114 245.932 50.6114C248.193 50.6114 250.035 52.5375 250.035 54.7985V79H263.1V54.3022C263.1 49.3802 264.083 44.9407 265.888 41.1085Z" fill="#894DF8"/>
</svg>
